DBRep_DrawableShape

CASCADE Topology V1, (c) Matra-Datavision
Locations 2
1
              1               0               0               0 
              0               1               0               0 
              0               0               1               2 
2  1 -1 0
Curve2ds 104
1 0 0 0 1 
1 0.099999999999999978 0 0 -1 
1 0 0 0 1 
1 0 -0.099999999999999978 1 0 
1 0 0 0 1 
1 0 -1.8999999999999999 1 0 
1 0 0 0 1 
1 1.8999999999999999 0 0 -1 
1 0 0.099999999999999978 1 0 
1 0 0 1 0 
1 0 1.8999999999999999 1 0 
1 0 0 1 0 
1 1.5707963267948966 0 0 1 
1 1.8999999999999999 0 0 -1 
8 4.7123889803846897 6.2831853071795862
1 6.2831853071795862 0.099999999999999978 -1 0 
8 4.7123889803846897 6.2831853071795862
1 0 -6.2831853071795862 0 1 
1 1.5707963267948966 0 0 1 
1 0 0.099999999999999978 -1 0 
8 4.7123889803846897 6.2831853071795862
1 6.2831853071795862 1.8999999999999999 -1 0 
8 4.7123889803846897 6.2831853071795862
1 0 -6.2831853071795862 0 1 
8 4.7123889803846897 6.2831853071795862
1 6.2831853071795862 0.099999999999999978 -1 0 
8 4.7123889803846897 6.2831853071795862
1 0 -6.2831853071795862 0 1 
1 1.5707963267948966 0 0 1 
1 0 0.099999999999999978 -1 0 
8 4.7123889803846897 6.2831853071795862
1 6.2831853071795862 1.8999999999999999 -1 0 
8 4.7123889803846897 6.2831853071795862
1 0 -6.2831853071795862 0 1 
1 0 0.099999999999999978 1 0 
1 0 0 1 0 
1 0 1.8999999999999999 1 0 
1 0 0 1 0 
1 1.5707963267948966 0 0 1 
1 0.099999999999999978 0 0 -1 
1 0 -1.5707963267948966 1 0 
8 4.7123889803846897 6.2831853071795862
1 6.2831853071795862 1.8999999999999999 -1 0 
8 4.7123889803846897 6.2831853071795862
1 1.5707963267948966 -6.2831853071795862 0 1 
1 0 -1.5707963267948966 1 0 
8 4.7123889803846897 6.2831853071795862
1 6.2831853071795862 1.8999999999999999 -1 0 
8 4.7123889803846897 6.2831853071795862
1 1.5707963267948966 -6.2831853071795862 0 1 
1 0 0 0 1 
1 0 -0.099999999999999978 1 0 
1 0 0 0 1 
1 0 -1.8999999999999999 1 0 
1 1.5707963267948966 0 0 1 
1 0.099999999999999978 0 0 -1 
1 1.5707963267948966 0 0 1 
1 -0.099999999999999978 2 0 -1 
1 1.5707963267948966 0 0 1 
1 -1.8999999999999999 0 0 1 
1 1.5707963267948966 0 0 1 
1 -2 1.8999999999999999 1 0 
1 0 -1.5707963267948966 1 0 
8 4.7123889803846897 6.2831853071795862
1 6.2831853071795862 0.099999999999999978 -1 0 
8 4.7123889803846897 6.2831853071795862
1 1.5707963267948954 -6.2831853071795862 0 1 
1 1.5707963267948966 0 0 1 
1 -0.099999999999999978 2 0 -1 
1 1.5707963267948966 0 0 1 
1 -1.8999999999999999 0 0 1 
1 1.5707963267948966 0 0 1 
1 -2 1.8999999999999999 1 0 
1 0 -1.5707963267948966 1 0 
8 4.7123889803846897 6.2831853071795862
1 6.2831853071795862 0.099999999999999978 -1 0 
8 4.7123889803846897 6.2831853071795862
1 1.5707963267948954 -6.2831853071795862 0 1 
1 0 0 0 1 
1 0 -0.099999999999999978 1 0 
1 0 0 0 1 
1 0 -1.8999999999999999 1 0 
1 0 0 0 1 
1 1.8999999999999999 0 0 -1 
8 4.7123889803846897 6.2831853071795862
1 6.2831853071795862 0.10000000000000009 -1 0 
8 4.7123889803846897 6.2831853071795862
1 1.5707963267948954 -6.2831853071795862 0 1 
8 4.7123889803846897 6.2831853071795862
1 6.2831853071795862 0.10000000000000009 -1 0 
8 4.7123889803846897 6.2831853071795862
1 1.5707963267948954 -6.2831853071795862 0 1 
1 0 0 0 1 
1 1.8999999999999999 0 0 -1 
1 0 0.099999999999999978 1 0 
1 0 0 1 0 
1 0 1.8999999999999999 1 0 
1 0 0 1 0 
8 4.7123889803846897 6.2831853071795862
1 6.2831853071795862 1.8999999999999999 -1 0 
8 4.7123889803846897 6.2831853071795862
1 0 -6.2831853071795862 0 1 
8 4.7123889803846897 6.2831853071795862
1 6.2831853071795862 0.10000000000000009 -1 0 
8 4.7123889803846897 6.2831853071795862
1 1.5707963267948954 -6.2831853071795862 0 1 
1 0 0 0 1 
1 0 -0.099999999999999978 1 0 
8 4.7123889803846897 6.2831853071795862
1 6.2831853071795862 1.8999999999999999 -1 0 
8 4.7123889803846897 6.2831853071795862
1 0 -6.2831853071795862 0 1 
8 4.7123889803846897 6.2831853071795862
1 6.2831853071795862 1.8999999999999999 -1 0 
8 4.7123889803846897 6.2831853071795862
1 0 -6.2831853071795862 0 1 
8 4.7123889803846897 6.2831853071795862
1 6.2831853071795862 0.10000000000000009 -1 0 
8 4.7123889803846897 6.2831853071795862
1 1.5707963267948954 -6.2831853071795862 0 1 
1 0 0 0 1 
1 0 -1.8999999999999999 1 0 
8 4.7123889803846897 6.2831853071795862
1 6.2831853071795862 1.8999999999999999 -1 0 
8 4.7123889803846897 6.2831853071795862
1 0 -6.2831853071795862 0 1 
1 0 0.099999999999999978 1 0 
1 0 0 1 0 
1 0 1.8999999999999999 1 0 
1 0 0 1 0 
1 1.5707963267948966 0 0 1 
1 0.099999999999999978 0 0 -1 
1 0 -1.5707963267948966 1 0 
1 0 -1.5707963267948966 1 0 
1 0 -1.5707963267948966 1 0 
1 0 -1.5707963267948966 1 0 
Curves 48
1 -0.90000000000000002 -1 -1 0 0 1 
1 -1 -1 -0.90000000000000002 1 0 0 
1 -1 -1 0.90000000000000002 1 0 0 
1 0.90000000000000002 -1 -1 0 0 1 
2 -0.90000000000000002 -0.90000000000000002 -0.90000000000000002 0 0 -1 0 -1 0 -1 0 0 0.10000000000000001
2 -0.90000000000000002 -0.90000000000000002 0.90000000000000002 0 0 -1 0 -1 0 -1 0 0 0.10000000000000001
1 -1 -0.90000000000000002 -1 0 0 1 
2 -0.90000000000000002 -0.90000000000000002 -0.90000000000000002 -1 0 0 0 -1 0 0 0 1 0.10000000000000001
1 -1 -0.90000000000000002 -1 1 0 0 
2 0.89999999999999991 -0.90000000000000002 -0.90000000000000002 -1 -1.1102230246251567e-015 0 1.1102230246251567e-015 -1 0 0 0 1 0.10000000000000001
2 -0.90000000000000002 -0.90000000000000002 0.90000000000000002 1 0 0 0 -1 0 0 0 -1 0.10000000000000001
1 -1 -0.90000000000000002 1 1 0 0 
2 0.89999999999999991 -0.90000000000000002 0.90000000000000002 1 1.1102230246251567e-015 0 1.1102230246251567e-015 -1 0 0 0 -1 0.10000000000000001
2 0.89999999999999991 -0.90000000000000002 -0.90000000000000002 0 0 1 1.1102230246251567e-015 -1 0 1 1.1102230246251567e-015 0 0.10000000000000001
2 0.89999999999999991 -0.90000000000000002 0.90000000000000002 0 0 1 1.1102230246251567e-015 -1 0 1 1.1102230246251567e-015 0 0.10000000000000001
1 1 -0.90000000000000002 -1 0 0 1 
2 -0.90000000000000002 -0.90000000000000002 -0.90000000000000002 -6.1230317691118863e-017 1 0 -1 -6.1230317691118863e-017 0 0 0 1 0.10000000000000001
2 -0.90000000000000002 -0.90000000000000002 0.90000000000000002 6.1230317691118863e-017 -1 0 -1 -6.1230317691118863e-017 0 0 0 -1 0.10000000000000001
1 -1 1 -0.90000000000000002 0 -1 0 
1 -1 1 0.90000000000000002 0 -1 0 
1 -1 0.90000000000000002 -1 0 0 1 
1 -0.90000000000000002 1 -1 0 -1 0 
1 0.90000000000000002 -1 -1 0 1 0 
1 1 0.90000000000000002 -1 -1 0 0 
2 0.89999999999999991 -0.90000000000000002 -0.90000000000000002 -6.1230317691118666e-017 -1 0 1 -6.1230317691118666e-017 0 0 0 1 0.10000000000000001
1 -0.90000000000000002 1 1 0 -1 0 
1 0.90000000000000002 -1 1 0 1 0 
1 1 0.90000000000000002 1 -1 0 0 
2 0.89999999999999991 -0.90000000000000002 0.90000000000000002 6.1230317691118666e-017 1 0 1 -6.1230317691118666e-017 0 0 0 -1 0.10000000000000001
1 1 -1 -0.90000000000000002 0 1 0 
1 1 -1 0.90000000000000002 0 1 0 
1 1 0.90000000000000002 -1 0 0 1 
2 -0.90000000000000002 0.89999999999999991 -0.90000000000000002 1.1714533423162754e-015 1 0 -1 1.1714533423162754e-015 0 0 0 1 0.10000000000000001
2 -0.90000000000000002 0.89999999999999991 0.90000000000000002 -1.1714533423162754e-015 -1 0 -1 1.1714533423162754e-015 0 0 0 -1 0.10000000000000001
1 -0.90000000000000002 1 -1 0 0 1 
2 -0.90000000000000002 0.89999999999999991 -0.90000000000000002 0 0 1 0 1 0 -1 0 0 0.10000000000000001
2 -0.90000000000000002 0.89999999999999991 0.90000000000000002 0 0 1 0 1 0 -1 0 0 0.10000000000000001
2 0.89999999999999991 0.89999999999999991 -0.90000000000000002 1.1102230246251556e-015 -1 0 1 1.1102230246251556e-015 0 0 0 1 0.10000000000000001
2 0.89999999999999991 0.89999999999999991 -0.90000000000000002 1 -6.1230317691119849e-017 0 6.1230317691119849e-017 1 0 0 0 1 0.10000000000000001
1 1 1 -0.90000000000000002 -1 0 0 
2 -0.90000000000000002 0.89999999999999991 -0.90000000000000002 1 0 0 0 1 0 0 0 1 0.10000000000000001
2 0.89999999999999991 0.89999999999999991 0.90000000000000002 -1.1102230246251556e-015 1 0 1 1.1102230246251556e-015 0 0 0 -1 0.10000000000000001
2 0.89999999999999991 0.89999999999999991 0.90000000000000002 -1 6.1230317691119849e-017 0 6.1230317691119849e-017 1 0 0 0 -1 0.10000000000000001
1 1 1 0.90000000000000002 -1 0 0 
2 -0.90000000000000002 0.89999999999999991 0.90000000000000002 -1 0 0 0 1 0 0 0 -1 0.10000000000000001
2 0.89999999999999991 0.89999999999999991 -0.90000000000000002 0 0 1 1 1.1102230246251556e-015 0 -1.1102230246251556e-015 1 0 0.10000000000000001
2 0.89999999999999991 0.89999999999999991 0.90000000000000002 0 0 1 1 1.1102230246251556e-015 0 -1.1102230246251556e-015 1 0 0.10000000000000001
1 0.90000000000000002 1 -1 0 0 1 
Polygon3D 0
PolygonOnTriangulations 0
Surfaces 25
1 -1 -1 -1 0 1 0 1 0 0 0 0 -1 
2 -0.90000000000000002 -0.90000000000000002 -1 0 0 1 0 -1 0 -1 0 0 0.10000000000000001
2 -1 -0.90000000000000002 -0.90000000000000002 1 0 0 0 -1 0 0 0 -1 0.10000000000000001
2 -1 -0.90000000000000002 0.90000000000000002 1 0 0 0 -1 0 0 0 1 0.10000000000000001
2 0.90000000000000002 -0.90000000000000002 -1 0 0 1 0 -1 0 1 0 0 0.10000000000000001
4 -0.90000000000000002 -0.90000000000000002 -0.90000000000000002 0 0 1 0 -1 0 -1 0 0 0.10000000000000001
4 -0.90000000000000002 -0.90000000000000002 0.90000000000000002 0 0 -1 0 -1 0 -1 0 0 0.10000000000000001
1 -1 1 -1 1 0 0 0 -1 0 0 0 -1 
1 -1 -1 -1 0 0 -1 -1 0 0 0 1 0 
4 0.89999999999999991 -0.90000000000000002 -0.90000000000000002 0 0 1 1.1102230246251567e-015 -1 0 1 1.1102230246251567e-015 0 0.10000000000000001
4 0.89999999999999991 -0.90000000000000002 0.90000000000000002 0 0 -1 1.1102230246251567e-015 -1 0 1 1.1102230246251567e-015 0 0.10000000000000001
1 1 -1 -1 -1 0 0 0 1 0 0 0 -1 
2 -0.90000000000000002 1 -0.90000000000000002 0 -1 0 -1 0 0 0 0 -1 0.10000000000000001
2 -0.90000000000000002 1 0.90000000000000002 0 -1 0 -1 0 0 0 0 1 0.10000000000000001
2 -0.90000000000000002 0.90000000000000002 -1 0 0 1 0 1 0 -1 0 0 0.10000000000000001
2 0.90000000000000002 -1 -0.90000000000000002 0 1 0 1 0 0 0 0 -1 0.10000000000000001
2 1 0.90000000000000002 -0.90000000000000002 -1 0 0 0 1 0 0 0 -1 0.10000000000000001
2 0.90000000000000002 -1 0.90000000000000002 0 1 0 1 0 0 0 0 1 0.10000000000000001
2 1 0.90000000000000002 0.90000000000000002 -1 0 0 0 1 0 0 0 1 0.10000000000000001
2 0.90000000000000002 0.90000000000000002 -1 0 0 1 1 0 0 0 1 0 0.10000000000000001
4 -0.90000000000000002 0.89999999999999991 -0.90000000000000002 0 0 1 0 1 0 -1 0 0 0.10000000000000001
4 -0.90000000000000002 0.89999999999999991 0.90000000000000002 0 0 -1 0 1 0 -1 0 0 0.10000000000000001
1 1 1 -1 0 -1 0 -1 0 0 0 0 -1 
4 0.89999999999999991 0.89999999999999991 -0.90000000000000002 0 0 1 1 1.1102230246251556e-015 0 -1.1102230246251556e-015 1 0 0.10000000000000001
4 0.89999999999999991 0.89999999999999991 0.90000000000000002 0 0 -1 1 1.1102230246251556e-015 0 -1.1102230246251556e-015 1 0 0.10000000000000001
Triangulations 0

TShapes 135
Ve
1e-007
-0.9 -1 -0.9
0 0

0101101
*
Ve
1e-007
-0.9 -1 0.9
0 0

0101101
*
Ed
 1e-007 1 1 0
1  1 0 0.1 1.9
2  1 2 0 0.1 1.9
2  2 1 0 0.1 1.9
4 G1 2 0 1 0
0

0101000
+135 0 -134 0 *
Ve
1e-007
0.9 -1 -0.9
0 0

0101101
*
Ed
 1e-007 1 1 0
1  2 0 0.1 1.9
2  3 3 0 0.1 1.9
2  4 1 0 0.1 1.9
4 G1 3 0 1 0
0

0101000
+135 0 -132 0 *
Ve
1e-007
0.9 -1 0.9
0 0

0101101
*
Ed
 1e-007 1 1 0
1  3 0 0.1 1.9
2  5 4 0 0.1 1.9
2  6 1 0 0.1 1.9
4 G1 4 0 1 0
0

0101000
+134 0 -130 0 *
Ed
 1e-007 1 1 0
1  4 0 0.1 1.9
2  7 5 0 0.1 1.9
2  8 1 0 0.1 1.9
4 G1 5 0 1 0
0

0101000
+132 0 -130 0 *
Wi

0101100
+133 0 -131 0 +129 0 -128 0 *
Fa
0  1e-007 1 0

0101000
+127 0 *
Ve
1e-007
-1 -0.9 -0.9
0 0

0101101
*
Ed
 1e-007 1 1 0
1  5 0 0 1.5707963267949
2  9 2 0 0 1.5707963267949
2  10 6 0 0 1.5707963267949
4 G1 6 0 2 0
0

0101100
+135 0 -125 0 *
Ve
1e-007
-1 -0.9 0.9
0 0

0101101
*
Ed
 1e-007 1 1 0
1  6 0 0 1.5707963267949
2  11 2 0 0 1.5707963267949
2  12 7 0 0 1.5707963267949
4 G1 7 0 2 0
0

0101100
+134 0 -123 0 *
Ed
 1e-007 1 1 0
1  7 0 0.1 1.9
2  13 2 0 0.1 1.9
2  14 8 0 0.1 1.9
4 G1 2 0 8 0
0

0101000
+125 0 -123 0 *
Wi

0101100
-133 0 +124 0 -122 0 +121 0 *
Fa
0  0 2 0

0101000
+120 0 *
Ve
1e-007
-0.9 -0.9 -1
0 0

0101101
*
Ed
 1e-007 1 1 0
1  8 0 4.71238898038469 6.28318530717959
2  15 3 0 4.71238898038469 6.28318530717959
2  16 6 0 4.71238898038469 6.28318530717959
4 G1 6 0 3 0
0

0101100
+118 0 -135 0 *
Ve
1e-007
0.9 -0.9 -1
0 0

0101101
*
Ed
 1e-007 1 1 0
1  9 0 0.1 1.9
2  17 3 0 0.1 1.9
2  18 9 0 0.1 1.9
4 G1 3 0 9 0
0

0101000
+118 0 -116 0 *
Ed
 1e-007 1 1 0
1  10 0 4.71238898038469 6.28318530717959
2  19 3 0 4.71238898038469 6.28318530717959
2  20 10 0 4.71238898038469 6.28318530717959
4 G1 10 0 3 0
0

0101100
+116 0 -132 0 *
Wi

0101100
-117 0 +115 0 -131 0 +114 0 *
Fa
0  0 3 0

0101000
+113 0 *
Ve
1e-007
-0.9 -0.9 1
0 0

0101101
*
Ed
 1e-007 1 1 0
1  11 0 4.71238898038469 6.28318530717959
2  21 4 0 4.71238898038469 6.28318530717959
2  22 7 0 4.71238898038469 6.28318530717959
4 G1 7 0 4 0
0

0101100
+111 0 -134 0 *
Ve
1e-007
0.9 -0.9 1
0 0

0101101
*
Ed
 1e-007 1 1 0
1  12 0 0.1 1.9
2  23 4 0 0.1 1.9
2  24 9 1 0.1 1.9
4 G1 4 0 9 1
0

0101000
+111 0 -109 0 *
Ed
 1e-007 1 1 0
1  13 0 4.71238898038469 6.28318530717959
2  25 4 0 4.71238898038469 6.28318530717959
2  26 11 0 4.71238898038469 6.28318530717959
4 G1 11 0 4 0
0

0101100
+109 0 -130 0 *
Wi

0101100
-110 0 +108 0 -129 0 +107 0 *
Fa
0  0 4 0

0101000
+106 0 *
Ve
1e-007
1 -0.9 -0.9
0 0

0101101
*
Ed
 1e-007 1 1 0
1  14 0 0 1.5707963267949
2  27 5 0 0 1.5707963267949
2  28 10 0 0 1.5707963267949
4 G1 10 0 5 0
0

0101100
+132 0 -104 0 *
Ve
1e-007
1 -0.9 0.9
0 0

0101101
*
Ed
 1e-007 1 1 0
1  15 0 0 1.5707963267949
2  29 5 0 0 1.5707963267949
2  30 11 0 0 1.5707963267949
4 G1 11 0 5 0
0

0101100
+130 0 -102 0 *
Ed
 1e-007 1 1 0
1  16 0 0.1 1.9
2  31 5 0 0.1 1.9
2  32 12 0 0.1 1.9
4 G1 5 0 12 0
0

0101000
+104 0 -102 0 *
Wi

0101100
-128 0 +103 0 -101 0 +100 0 *
Fa
0  0 5 0

0101000
+99 0 *
Ed
 2.22044604925031e-016 1 1 1
2  33 6 0 0 1.5707963267949
0

0101000
+118 0 -118 0 *
Ed
 1e-007 1 1 0
1  17 0 4.71238898038469 6.28318530717959
2  34 13 0 4.71238898038469 6.28318530717959
2  35 6 0 4.71238898038469 6.28318530717959
4 G1 6 0 13 0
0

0101100
+118 0 -125 0 *
Wi

0101100
-117 0 +97 0 +96 0 -124 0 *
Fa
0  0 6 0

0101000
+95 0 *
Ed
 2.22044604925031e-016 1 1 1
2  36 7 0 0 1.5707963267949
0

0101000
+111 0 -111 0 *
Ed
 1e-007 1 1 0
1  18 0 4.71238898038469 6.28318530717959
2  37 14 0 4.71238898038469 6.28318530717959
2  38 7 0 4.71238898038469 6.28318530717959
4 G1 7 0 14 0
0

0101100
+111 0 -123 0 *
Wi

0101100
-110 0 +93 0 +92 0 -122 0 *
Fa
0  0 7 0

0101000
+91 0 *
Ve
1e-007
-1 0.9 -0.9
0 0

0101101
*
Ed
 1e-007 1 1 0
1  19 0 0.1 1.9
2  39 13 0 0.1 1.9
2  40 8 0 0.1 1.9
4 G1 13 0 8 0
0

0101000
+89 0 -125 0 *
Ve
1e-007
-1 0.9 0.9
0 0

0101101
*
Ed
 1e-007 1 1 0
1  20 0 0.1 1.9
2  41 14 0 0.1 1.9
2  42 8 0 0.1 1.9
4 G1 14 0 8 0
0

0101000
+87 0 -123 0 *
Ed
 1e-007 1 1 0
1  21 0 0.1 1.9
2  43 15 0 0.1 1.9
2  44 8 0 0.1 1.9
4 G1 15 0 8 0
0

0101000
+89 0 -87 0 *
Wi

0101100
-121 0 -88 0 +86 0 +85 0 *
Fa
0  1e-007 8 0

0101000
+84 0 *
Ve
1e-007
-0.9 0.9 -1
0 0

0101101
*
Ed
 1e-007 1 1 0
1  22 0 0.1 1.9
2  45 13 0 0.1 1.9
2  46 9 0 0.1 1.9
4 G1 13 0 9 0
0

0101000
+82 0 -118 0 *
Ve
1e-007
0.9 0.9 -1
0 0

0101101
*
Ed
 1e-007 1 1 0
1  23 0 0.1 1.9
2  47 16 0 0.1 1.9
2  48 9 0 0.1 1.9
4 G1 16 0 9 0
0

0101000
+116 0 -80 0 *
Ed
 1e-007 1 1 0
1  24 0 0.1 1.9
2  49 17 0 0.1 1.9
2  50 9 0 0.1 1.9
4 G1 17 0 9 0
0

0101000
+80 0 -82 0 *
Wi

0101100
-115 0 -81 0 -79 0 -78 0 *
Fa
0  1e-007 9 0

0101000
+77 0 *
Ed
 2.22044604925031e-016 1 1 1
2  51 10 0 0 1.5707963267949
0

0101000
+116 0 -116 0 *
Ed
 1e-007 1 1 0
1  25 0 4.71238898038469 6.28318530717959
2  52 16 0 4.71238898038469 6.28318530717959
2  53 10 0 4.71238898038469 6.28318530717959
4 G1 10 0 16 0
0

0101100
+116 0 -104 0 *
Wi

0101100
-114 0 +75 0 +74 0 -103 0 *
Fa
0  0 10 0

0101000
+73 0 *
Ve
1e-007
-0.9 0.9 1
0 0

0101101
*
Ed
 1e-007 1 1 0
1  26 0 0.1 1.9
2  54 14 0 0.1 1.9
2  55 9 1 0.1 1.9
4 G1 14 0 9 1
0

0101000
+71 0 -111 0 *
Ve
1e-007
0.9 0.9 1
0 0

0101101
*
Ed
 1e-007 1 1 0
1  27 0 0.1 1.9
2  56 18 0 0.1 1.9
2  57 9 1 0.1 1.9
4 G1 18 0 9 1
0

0101000
+109 0 -69 0 *
Ed
 1e-007 1 1 0
1  28 0 0.1 1.9
2  58 19 0 0.1 1.9
2  59 9 1 0.1 1.9
4 G1 19 0 9 1
0

0101000
+69 0 -71 0 *
Wi

0101100
-108 0 -70 0 -68 0 -67 0 *
Fa
0  1e-007 9 0

0101000
+66 2 *
Ed
 2.22044604925031e-016 1 1 1
2  60 11 0 0 1.5707963267949
0

0101000
+109 0 -109 0 *
Ed
 1e-007 1 1 0
1  29 0 4.71238898038469 6.28318530717959
2  61 18 0 4.71238898038469 6.28318530717959
2  62 11 0 4.71238898038469 6.28318530717959
4 G1 11 0 18 0
0

0101100
+109 0 -102 0 *
Wi

0101100
-107 0 +64 0 +63 0 -101 0 *
Fa
0  0 11 0

0101000
+62 0 *
Ve
1e-007
1 0.9 -0.9
0 0

0101101
*
Ed
 1e-007 1 1 0
1  30 0 0.1 1.9
2  63 16 0 0.1 1.9
2  64 12 0 0.1 1.9
4 G1 16 0 12 0
0

0101000
+104 0 -60 0 *
Ve
1e-007
1 0.9 0.9
0 0

0101101
*
Ed
 1e-007 1 1 0
1  31 0 0.1 1.9
2  65 18 0 0.1 1.9
2  66 12 0 0.1 1.9
4 G1 18 0 12 0
0

0101000
+102 0 -58 0 *
Ed
 1e-007 1 1 0
1  32 0 0.1 1.9
2  67 20 0 0.1 1.9
2  68 12 0 0.1 1.9
4 G1 20 0 12 0
0

0101000
+60 0 -58 0 *
Wi

0101100
+100 0 -59 0 +57 0 -56 0 *
Fa
0  1e-007 12 0

0101000
+55 0 *
Ed
 1e-007 1 1 0
1  33 0 4.71238898038469 6.28318530717959
2  69 13 0 4.71238898038469 6.28318530717959
2  70 21 0 4.71238898038469 6.28318530717959
4 G1 21 0 13 0
0

0101100
+82 0 -89 0 *
Wi

0101100
-53 0 +81 0 -88 0 +96 0 *
Fa
0  0 13 0

0101000
+52 0 *
Ed
 1e-007 1 1 0
1  34 0 4.71238898038469 6.28318530717959
2  71 14 0 4.71238898038469 6.28318530717959
2  72 22 0 4.71238898038469 6.28318530717959
4 G1 22 0 14 0
0

0101100
+71 0 -87 0 *
Wi

0101100
-50 0 +70 0 -86 0 +92 0 *
Fa
0  0 14 0

0101000
+49 0 *
Ve
1e-007
-0.9 1 -0.9
0 0

0101101
*
Ve
1e-007
-0.9 1 0.9
0 0

0101101
*
Ed
 1e-007 1 1 0
1  35 0 0.1 1.9
2  73 15 0 0.1 1.9
2  74 23 0 0.1 1.9
4 G1 15 0 23 0
0

0101000
+47 0 -46 0 *
Ed
 1e-007 1 1 0
1  36 0 0 1.5707963267949
2  75 15 0 0 1.5707963267949
2  76 21 0 0 1.5707963267949
4 G1 21 0 15 0
0

0101100
+47 0 -89 0 *
Ed
 1e-007 1 1 0
1  37 0 0 1.5707963267949
2  77 15 0 0 1.5707963267949
2  78 22 0 0 1.5707963267949
4 G1 22 0 15 0
0

0101100
+46 0 -87 0 *
Wi

0101100
-45 0 +44 0 -43 0 +85 0 *
Fa
0  0 15 0

0101000
+42 0 *
Ed
 1e-007 1 1 0
1  38 0 4.71238898038469 6.28318530717959
2  79 16 0 4.71238898038469 6.28318530717959
2  80 24 0 4.71238898038469 6.28318530717959
4 G1 24 0 16 0
0

0101100
+80 0 -60 0 *
Wi

0101100
-74 0 +79 0 -59 0 +40 0 *
Fa
0  0 16 0

0101000
+39 0 *
Ve
1e-007
0.9 1 -0.9
0 0

0101101
*
Ed
 1e-007 1 1 0
1  39 0 4.71238898038469 6.28318530717959
2  81 17 0 4.71238898038469 6.28318530717959
2  82 24 0 4.71238898038469 6.28318530717959
4 G1 24 0 17 0
0

0101100
+80 0 -37 0 *
Ed
 1e-007 1 1 0
1  40 0 0.1 1.9
2  83 17 0 0.1 1.9
2  84 23 0 0.1 1.9
4 G1 17 0 23 0
0

0101000
+37 0 -47 0 *
Ed
 1e-007 1 1 0
1  41 0 4.71238898038469 6.28318530717959
2  85 17 0 4.71238898038469 6.28318530717959
2  86 21 0 4.71238898038469 6.28318530717959
4 G1 21 0 17 0
0

0101100
+82 0 -47 0 *
Wi

0101100
-36 0 +78 0 -35 0 +34 0 *
Fa
0  0 17 0

0101000
+33 0 *
Ed
 1e-007 1 1 0
1  42 0 4.71238898038469 6.28318530717959
2  87 18 0 4.71238898038469 6.28318530717959
2  88 25 0 4.71238898038469 6.28318530717959
4 G1 25 0 18 0
0

0101100
+69 0 -58 0 *
Wi

0101100
-63 0 +68 0 -57 0 +31 0 *
Fa
0  0 18 0

0101000
+30 0 *
Ve
1e-007
0.9 1 0.9
0 0

0101101
*
Ed
 1e-007 1 1 0
1  43 0 4.71238898038469 6.28318530717959
2  89 19 0 4.71238898038469 6.28318530717959
2  90 25 0 4.71238898038469 6.28318530717959
4 G1 25 0 19 0
0

0101100
+69 0 -28 0 *
Ed
 1e-007 1 1 0
1  44 0 0.1 1.9
2  91 19 0 0.1 1.9
2  92 23 0 0.1 1.9
4 G1 19 0 23 0
0

0101000
+28 0 -46 0 *
Ed
 1e-007 1 1 0
1  45 0 4.71238898038469 6.28318530717959
2  93 19 0 4.71238898038469 6.28318530717959
2  94 22 0 4.71238898038469 6.28318530717959
4 G1 22 0 19 0
0

0101100
+71 0 -46 0 *
Wi

0101100
-27 0 +67 0 -26 0 +25 0 *
Fa
0  0 19 0

0101000
+24 0 *
Ed
 1e-007 1 1 0
1  46 0 0 1.5707963267949
2  95 20 0 0 1.5707963267949
2  96 24 0 0 1.5707963267949
4 G1 24 0 20 0
0

0101100
+60 0 -37 0 *
Ed
 1e-007 1 1 0
1  47 0 0 1.5707963267949
2  97 20 0 0 1.5707963267949
2  98 25 0 0 1.5707963267949
4 G1 25 0 20 0
0

0101100
+58 0 -28 0 *
Ed
 1e-007 1 1 0
1  48 0 0.1 1.9
2  99 20 0 0.1 1.9
2  100 23 0 0.1 1.9
4 G1 20 0 23 0
0

0101000
+37 0 -28 0 *
Wi

0101100
-56 0 +22 0 -21 0 +20 0 *
Fa
0  0 20 0

0101000
+19 0 *
Ed
 2.22044604925031e-016 1 1 1
2  101 21 0 0 1.5707963267949
0

0101000
+82 0 -82 0 *
Wi

0101100
-34 0 +17 0 +53 0 -44 0 *
Fa
0  0 21 0

0101000
+16 0 *
Ed
 2.22044604925031e-016 1 1 1
2  102 22 0 0 1.5707963267949
0

0101000
+71 0 -71 0 *
Wi

0101100
-25 0 +14 0 +50 0 -43 0 *
Fa
0  0 22 0

0101000
+13 0 *
Wi

0101100
+20 0 -35 0 +26 0 -45 0 *
Fa
0  1e-007 23 0

0101000
+11 0 *
Ed
 2.22044604925031e-016 1 1 1
2  103 24 0 0 1.5707963267949
0

0101000
+80 0 -80 0 *
Wi

0101100
-40 0 +9 0 +36 0 -22 0 *
Fa
0  0 24 0

0101000
+8 0 *
Ed
 2.22044604925031e-016 1 1 1
2  104 25 0 0 1.5707963267949
0

0101000
+69 0 -69 0 *
Wi

0101100
-31 0 +6 0 +27 0 -21 0 *
Fa
0  0 25 0

0101000
+5 0 *
Sh

0101100
-126 0 -119 0 +112 0 -105 0 +98 0 -94 0 +90 0 -83 0 +76 0 +72 0 
-65 1 -61 0 -54 0 +51 0 -48 0 +41 0 +38 0 +32 0 -29 0 -23 0 
+18 0 +15 0 -12 0 -10 0 +7 0 -4 0 *
So

0100000
+3 0 *
Co

1100000
+2 0 *

+1 0 